<svg width="64" height="64" viewBox="0 0 64 64" fill="none" xmlns="http://www.w3.org/2000/svg">
<g filter="url(#filter0_d_41_2931)">
<rect width="60" height="60" rx="5" fill="#E5E5E5"/>
<rect x="3" y="4" width="53" height="52" rx="26" fill="#1A243D"/>
<path d="M29.5001 3C14.3142 3 2 15.3941 2 30.6835C2 42.915 9.8796 53.2919 20.8063 56.9524C22.1806 57.2086 22.6853 56.3519 22.6853 55.6207C22.6853 54.9606 22.6596 52.7797 22.648 50.4665C14.9972 52.1411 13.3829 47.2002 13.3829 47.2002C12.1319 44.0003 10.3295 43.1497 10.3295 43.1497C7.83454 41.4314 10.5176 41.4666 10.5176 41.4666C13.2791 41.662 14.7332 44.3195 14.7332 44.3195C17.1859 48.5518 21.1665 47.3281 22.7358 46.6209C22.9825 44.8315 23.6953 43.6104 24.4817 42.9191C18.3737 42.2189 11.9525 39.8452 11.9525 29.2377C11.9525 26.2154 13.0268 23.7457 14.7861 21.8071C14.5005 21.1097 13.5593 18.2941 15.0524 14.4809C15.0524 14.4809 17.3617 13.7369 22.6169 17.3186C24.8104 16.7051 27.163 16.3976 29.5001 16.3872C31.8372 16.3976 34.1916 16.7051 36.3893 17.3186C41.6383 13.7369 43.9443 14.4809 43.9443 14.4809C45.4411 18.2941 44.4995 21.1097 44.2139 21.8071C45.9771 23.7457 47.0441 26.2152 47.0441 29.2377C47.0441 39.8703 40.6108 42.2117 34.4872 42.897C35.4735 43.7561 36.3524 45.4409 36.3524 48.0235C36.3524 51.7275 36.3205 54.7088 36.3205 55.6207C36.3205 56.3573 36.8155 57.2206 38.2096 56.9488C49.1303 53.284 57 42.9109 57 30.6835C57 15.3941 44.6876 3 29.5001 3Z" fill="#E5E5E5"/>
<path d="M12.7237 42.444C12.6644 42.574 12.4529 42.613 12.2607 42.5239C12.0646 42.4385 11.9545 42.261 12.018 42.1304C12.0763 41.9965 12.2878 41.9592 12.4834 42.0491C12.6798 42.1343 12.7917 42.3134 12.7237 42.444ZM14.0528 43.5932C13.924 43.709 13.672 43.6552 13.501 43.4722C13.3242 43.2897 13.2912 43.0457 13.4219 42.928C13.5548 42.8124 13.7991 42.8664 13.9763 43.0492C14.153 43.2338 14.1874 43.4763 14.0526 43.5934L14.0528 43.5932ZM14.9647 45.0635C14.7989 45.175 14.5281 45.0705 14.3609 44.8376C14.1954 44.605 14.1954 44.3257 14.3645 44.2138C14.5324 44.1018 14.7989 44.2025 14.9685 44.4335C15.1338 44.6703 15.1338 44.9496 14.9644 45.0637L14.9647 45.0635ZM16.5065 46.7665C16.3584 46.9247 16.0431 46.8824 15.8121 46.6663C15.576 46.4552 15.5101 46.1556 15.6587 45.9973C15.8085 45.8387 16.1257 45.8833 16.3584 46.0975C16.593 46.3082 16.6646 46.6101 16.5067 46.7665H16.5065ZM18.4993 47.3415C18.4343 47.5465 18.1304 47.6397 17.8244 47.5527C17.5188 47.4629 17.3188 47.2226 17.3804 47.0154C17.444 46.8091 17.7492 46.7119 18.0575 46.8052C18.3627 46.8945 18.5631 47.1329 18.4995 47.3415H18.4993ZM20.7676 47.5853C20.7753 47.8013 20.5157 47.9804 20.1944 47.9843C19.8713 47.9911 19.61 47.8163 19.6066 47.604C19.6066 47.3859 19.8602 47.2085 20.1832 47.2033C20.5044 47.1972 20.7676 47.3707 20.7676 47.5853ZM22.9957 47.5025C23.0342 47.7132 22.8109 47.9297 22.492 47.9872C22.1783 48.0426 21.888 47.9126 21.848 47.7038C21.809 47.4878 22.0366 47.2715 22.3496 47.2155C22.6691 47.1617 22.955 47.2884 22.9957 47.5025Z" fill="#E5E5E5"/>
</g>
<defs>
<filter id="filter0_d_41_2931" x="0" y="0" width="64" height="64" filterUnits="userSpaceOnUse" color-interpolation-filters="sRGB">
<feFlood flood-opacity="0" result="BackgroundImageFix"/>
<feColorMatrix in="SourceAlpha" type="matrix" values="0 0 0 0 0 0 0 0 0 0 0 0 0 0 0 0 0 0 127 0" result="hardAlpha"/>
<feOffset dx="4" dy="4"/>
<feColorMatrix type="matrix" values="0 0 0 0 0.285937 0 0 0 0 0.294844 0 0 0 0 0.375 0 0 0 1 0"/>
<feBlend mode="normal" in2="BackgroundImageFix" result="effect1_dropShadow_41_2931"/>
<feBlend mode="normal" in="SourceGraphic" in2="effect1_dropShadow_41_2931" result="shape"/>
</filter>
</defs>
</svg>
