<svg width="64" height="64" viewBox="0 0 64 64" fill="none" xmlns="http://www.w3.org/2000/svg">
<g filter="url(#filter0_d_41_2852)">
<path d="M0 4.29797C0 1.92562 1.98609 0 4.43437 0H55.5656C58.0148 0 60 1.92562 60 4.29797V55.7027C60 58.0758 58.0148 60 55.5656 60H4.43437C1.98633 60 0 58.076 0 55.7034V4.29727V4.29797Z" fill="#006699"/>
<path d="M18.2328 50.2121V23.1999H9.25432V50.2121H18.2337H18.2328ZM13.7454 19.5124C16.8757 19.5124 18.8245 17.4382 18.8245 14.846C18.766 12.1948 16.8757 10.1785 13.8049 10.1785C10.7321 10.1785 8.7251 12.1948 8.7251 14.8458C8.7251 17.438 10.6732 19.5122 13.6866 19.5122H13.7447L13.7454 19.5124ZM23.2024 50.2121H32.1802V35.1289C32.1802 34.3226 32.2388 33.5142 32.476 32.9384C33.1247 31.3247 34.602 29.6543 37.0828 29.6543C40.3308 29.6543 41.6309 32.1312 41.6309 35.7628V50.2121H50.6084V34.7241C50.6084 26.4275 46.1796 22.5666 40.2727 22.5666C35.4298 22.5666 33.3028 25.2734 32.1211 27.117H32.1809V23.2008H23.2029C23.3201 25.7349 23.2022 50.213 23.2022 50.213L23.2024 50.2121Z" fill="white"/>
</g>
<defs>
<filter id="filter0_d_41_2852" x="0" y="0" width="64" height="64" filterUnits="userSpaceOnUse" color-interpolation-filters="sRGB">
<feFlood flood-opacity="0" result="BackgroundImageFix"/>
<feColorMatrix in="SourceAlpha" type="matrix" values="0 0 0 0 0 0 0 0 0 0 0 0 0 0 0 0 0 0 127 0" result="hardAlpha"/>
<feOffset dx="4" dy="4"/>
<feColorMatrix type="matrix" values="0 0 0 0 0.285937 0 0 0 0 0.294844 0 0 0 0 0.375 0 0 0 1 0"/>
<feBlend mode="normal" in2="BackgroundImageFix" result="effect1_dropShadow_41_2852"/>
<feBlend mode="normal" in="SourceGraphic" in2="effect1_dropShadow_41_2852" result="shape"/>
</filter>
</defs>
</svg>
