<svg width="64" height="64" viewBox="0 0 64 64" fill="none" xmlns="http://www.w3.org/2000/svg">
<g filter="url(#filter0_d_41_2937)">
<rect width="60" height="60" rx="5" fill="#2DAAE1"/>
<path d="M49.4711 17.6989C48.056 18.3268 46.5362 18.7513 44.9382 18.9421C46.5691 17.9655 47.8185 16.4179 48.4084 14.5761C46.8592 15.4962 45.1637 16.144 43.3956 16.4913C41.9567 14.9576 39.9049 14 37.6349 14C33.2777 14 29.744 17.5322 29.744 21.8919C29.744 22.5097 29.8136 23.1123 29.9473 23.6909C23.3882 23.3613 17.5731 20.2194 13.6807 15.4453C13.0011 16.6113 12.6121 17.9669 12.6121 19.4133C12.6121 22.151 14.0055 24.5665 16.1228 25.9814C14.8694 25.9425 13.6435 25.6042 12.5476 24.9947V25.0944C12.5476 28.9185 15.2675 32.1072 18.8781 32.8324C18.2149 33.0141 17.5188 33.109 16.7987 33.109C16.2896 33.109 15.7956 33.0608 15.3131 32.9701C16.3174 36.1044 19.232 38.3859 22.6845 38.4504C19.9835 40.5677 16.5801 41.8299 12.8836 41.8299C12.247 41.8299 11.6177 41.7919 11 41.7174C14.4931 43.9572 18.6407 45.2648 23.0977 45.2648C37.6134 45.2648 45.5521 33.2392 45.5521 22.8105C45.5521 22.4681 45.5446 22.1283 45.5281 21.7897C47.0748 20.6709 48.41 19.2857 49.4711 17.6989Z" fill="white"/>
</g>
<defs>
<filter id="filter0_d_41_2937" x="0" y="0" width="64" height="64" filterUnits="userSpaceOnUse" color-interpolation-filters="sRGB">
<feFlood flood-opacity="0" result="BackgroundImageFix"/>
<feColorMatrix in="SourceAlpha" type="matrix" values="0 0 0 0 0 0 0 0 0 0 0 0 0 0 0 0 0 0 127 0" result="hardAlpha"/>
<feOffset dx="4" dy="4"/>
<feColorMatrix type="matrix" values="0 0 0 0 0.285937 0 0 0 0 0.294844 0 0 0 0 0.375 0 0 0 1 0"/>
<feBlend mode="normal" in2="BackgroundImageFix" result="effect1_dropShadow_41_2937"/>
<feBlend mode="normal" in="SourceGraphic" in2="effect1_dropShadow_41_2937" result="shape"/>
</filter>
</defs>
</svg>
