<svg width="3000pt" height="1500pt" viewBox="0 0 3000 1500" version="1.1" xmlns="http://www.w3.org/2000/svg">
<path fill="#bb9556" opacity="1.00" d=" M 690.98 205.93 C 727.90 197.02 766.03 191.97 804.05 194.67 C 840.29 196.54 876.61 201.96 910.93 214.09 C 940.77 224.13 969.09 239.39 992.76 260.26 C 1008.72 274.53 1016.76 297.35 1011.49 318.36 C 1004.21 348.62 976.71 371.28 946.55 376.45 C 925.96 379.67 904.83 379.27 884.32 375.68 C 837.23 367.32 792.62 349.27 749.18 329.80 C 710.13 312.57 673.82 289.90 635.22 271.74 C 627.05 282.52 617.94 292.74 611.89 304.95 C 602.60 321.31 594.17 338.93 593.21 358.03 C 591.81 376.40 596.45 394.82 604.91 411.05 C 620.18 441.02 645.82 464.61 674.55 481.52 C 678.10 483.37 681.59 485.73 685.64 486.30 C 698.94 487.81 712.47 486.97 725.69 489.27 C 753.24 493.23 780.69 501.24 804.49 515.96 C 786.43 512.30 768.56 507.43 750.15 505.75 C 706.60 501.32 661.88 503.95 619.89 516.86 C 587.57 527.44 558.35 546.38 534.21 570.21 C 511.00 592.24 492.47 619.02 479.06 648.03 C 468.57 671.63 461.65 697.06 461.06 722.99 C 459.65 746.65 466.33 770.18 476.77 791.23 C 501.49 838.41 548.45 870.35 598.60 885.53 C 635.16 896.44 674.11 899.76 711.96 894.87 C 768.77 887.01 822.57 863.27 868.88 829.83 C 866.05 811.23 864.96 792.24 867.49 773.55 C 872.89 739.82 881.37 706.06 897.86 675.92 C 909.40 655.98 924.05 637.39 943.05 624.08 C 969.63 604.66 1001.36 593.71 1033.41 587.45 C 1052.70 583.89 1072.91 582.59 1091.99 588.08 C 1120.72 595.09 1147.02 615.70 1157.05 644.00 C 1162.04 661.90 1159.02 682.48 1146.90 696.93 C 1140.05 706.67 1128.08 712.89 1116.12 711.91 C 1105.50 710.76 1096.89 702.61 1092.94 693.03 C 1087.58 678.56 1088.27 662.77 1083.85 648.05 C 1079.90 633.74 1067.82 621.01 1052.61 619.45 C 1037.63 616.80 1022.25 621.41 1009.94 629.92 C 997.19 637.96 987.72 650.02 979.25 662.26 C 964.45 685.42 953.03 711.35 949.80 738.86 C 946.53 765.70 946.97 793.24 953.44 819.59 C 959.77 845.42 971.92 871.02 993.15 887.86 C 1014.65 904.86 1043.42 909.33 1070.05 906.19 C 1115.69 901.06 1157.88 880.16 1195.09 854.12 C 1207.58 845.33 1219.21 835.41 1231.04 825.77 C 1223.12 760.24 1231.85 694.26 1242.49 629.55 C 1261.03 525.27 1283.12 421.07 1319.26 321.29 C 1327.10 300.71 1335.17 280.12 1345.76 260.76 C 1356.21 241.54 1375.87 228.46 1397.07 224.00 C 1410.18 220.57 1423.81 221.03 1437.26 220.99 C 1430.09 239.62 1420.94 257.43 1414.43 276.31 C 1373.69 383.33 1350.18 495.91 1330.46 608.42 C 1320.87 664.24 1311.03 720.26 1309.14 776.99 C 1308.68 805.50 1309.95 834.63 1319.14 861.89 C 1325.56 879.86 1335.07 897.73 1350.99 909.01 C 1365.90 920.06 1385.40 922.75 1403.46 920.58 C 1424.95 917.34 1445.10 908.61 1464.22 898.60 C 1450.89 881.57 1440.59 862.17 1434.59 841.36 C 1423.26 800.33 1424.62 755.68 1439.71 715.77 C 1453.35 676.93 1480.28 643.34 1513.96 619.91 C 1526.20 610.47 1539.54 602.57 1553.07 595.14 C 1580.20 581.22 1610.09 570.66 1641.01 571.89 C 1667.42 571.28 1691.87 587.70 1705.15 609.89 C 1710.90 618.83 1713.18 629.50 1714.28 639.95 C 1716.18 656.13 1711.15 672.16 1704.90 686.88 C 1697.39 704.54 1685.51 719.78 1673.51 734.55 C 1645.42 766.97 1606.57 787.52 1567.30 803.26 C 1549.60 810.19 1531.62 816.37 1513.61 822.42 C 1518.74 840.89 1526.85 858.86 1539.80 873.21 C 1548.21 882.95 1560.14 888.71 1572.07 892.98 C 1584.78 897.85 1598.13 900.94 1611.67 902.34 C 1636.12 905.15 1660.23 897.85 1683.11 890.13 C 1697.21 884.55 1711.53 879.32 1724.71 871.72 C 1736.78 864.61 1748.46 856.85 1759.94 848.80 C 1753.39 826.88 1751.18 803.77 1753.06 780.99 C 1756.14 738.92 1765.50 695.56 1791.02 661.03 C 1814.52 628.45 1851.12 608.46 1888.25 595.28 C 1915.28 585.19 1945.98 581.68 1973.64 591.47 C 1994.72 598.98 2014.08 613.58 2024.08 633.95 C 2029.69 644.43 2029.61 656.84 2028.39 668.35 C 2025.38 683.12 2017.35 698.55 2002.73 704.65 C 1990.29 710.71 1974.92 704.34 1967.95 693.04 C 1958.95 678.55 1958.85 660.62 1951.47 645.44 C 1947.31 636.80 1940.26 629.59 1931.63 625.41 C 1920.38 620.74 1907.39 621.58 1896.29 626.28 C 1881.98 631.14 1870.85 642.13 1862.17 654.13 C 1850.23 670.14 1842.53 688.84 1836.72 707.82 C 1824.94 747.66 1829.02 790.90 1842.07 829.89 C 1851.88 858.93 1870.17 886.93 1898.61 900.43 C 1915.06 907.84 1933.52 910.32 1951.42 908.52 C 2000.02 901.93 2043.40 875.51 2079.70 843.68 C 2107.25 819.16 2132.44 791.89 2153.95 761.90 C 2153.90 763.59 2153.81 766.98 2153.76 768.67 C 2134.09 809.69 2104.70 845.75 2069.75 874.74 C 2041.08 897.76 2009.30 916.84 1975.72 931.75 C 1941.27 946.49 1901.82 948.94 1865.67 939.37 C 1824.40 928.48 1785.99 901.85 1766.61 863.13 C 1735.97 882.58 1705.04 901.85 1672.01 917.02 C 1638.02 933.29 1601.21 946.36 1562.99 944.93 C 1529.44 944.49 1496.54 930.73 1472.61 907.21 C 1442.24 923.68 1410.40 939.73 1375.55 943.48 C 1336.27 949.63 1293.87 936.73 1266.29 907.73 C 1248.53 888.34 1238.19 863.36 1232.86 837.88 C 1195.81 875.57 1149.09 902.12 1100.87 922.81 C 1087.92 928.07 1075.00 933.46 1061.65 937.63 C 1039.72 943.78 1016.65 946.44 993.94 944.22 C 953.34 940.07 915.10 917.70 891.89 884.09 C 882.59 870.94 876.13 856.00 871.37 840.68 C 850.94 860.36 829.96 879.71 805.84 894.86 C 746.86 934.48 675.41 951.56 605.02 953.26 C 570.06 954.37 534.69 950.14 501.63 938.41 C 448.65 920.22 403.71 881.06 376.87 832.07 C 355.53 793.67 354.01 746.63 365.88 704.96 C 373.97 675.61 387.95 648.10 404.94 622.94 C 433.96 581.74 471.27 545.05 517.01 522.97 C 554.63 506.39 594.63 495.49 635.29 489.61 C 608.65 483.49 582.73 473.27 560.00 457.95 C 540.88 444.63 523.87 427.33 514.00 405.98 C 509.09 395.39 506.27 383.93 504.52 372.44 C 501.40 347.32 509.17 321.85 522.90 300.94 C 536.71 278.96 556.97 262.12 578.10 247.48 C 552.97 238.63 527.62 230.28 501.62 224.38 C 474.38 218.37 446.01 217.36 418.54 222.44 C 359.74 232.86 306.62 264.19 262.42 303.46 C 222.79 335.88 195.25 382.29 184.13 432.13 C 180.62 452.35 178.18 473.43 183.42 493.60 C 187.77 513.79 198.41 532.43 213.17 546.82 C 232.08 565.83 257.60 580.11 284.99 580.03 C 303.57 581.11 324.59 574.90 335.13 558.54 C 327.37 556.22 319.71 552.88 313.69 547.31 C 307.82 541.63 306.77 532.45 308.78 524.87 C 313.52 512.73 323.50 500.39 337.43 499.44 C 352.33 497.83 365.22 508.34 372.90 520.08 C 378.58 527.84 375.36 538.44 371.00 546.03 C 355.05 573.49 323.65 590.93 292.02 591.02 C 267.16 592.49 242.88 583.65 221.59 571.47 C 178.82 546.48 148.90 502.42 137.55 454.57 C 130.74 425.26 128.99 393.99 137.78 364.91 C 145.59 337.39 161.83 312.97 181.38 292.35 C 206.82 266.11 236.62 243.48 270.61 229.54 C 326.92 206.24 389.28 199.53 449.68 205.35 C 497.48 210.07 543.69 224.14 589.32 238.50 C 593.53 239.51 597.29 236.47 601.01 235.03 C 629.07 220.23 660.36 213.26 690.98 205.93 M 724.07 215.19 C 695.04 224.27 668.30 239.94 645.85 260.42 C 676.30 274.87 705.42 291.85 734.99 307.98 C 761.78 321.43 789.46 333.37 818.31 341.70 C 834.18 345.91 850.46 349.61 867.01 349.05 C 889.12 349.35 913.08 344.32 929.44 328.45 C 939.08 319.14 946.03 306.51 946.80 292.97 C 946.78 276.33 938.25 260.82 926.71 249.29 C 913.55 236.42 897.11 227.47 880.01 220.98 C 830.37 202.75 774.87 200.07 724.07 215.19 M 1585.05 616.12 C 1565.79 625.62 1551.57 642.34 1540.00 659.98 C 1529.11 676.90 1519.83 694.87 1512.48 713.60 C 1501.99 744.69 1503.43 778.56 1510.21 810.31 C 1554.42 783.63 1597.17 751.04 1623.89 705.94 C 1636.42 684.23 1646.04 658.81 1640.55 633.41 C 1638.35 624.19 1633.16 614.58 1623.60 611.45 C 1610.81 608.65 1596.77 610.07 1585.05 616.12 Z" />
<path fill="#999999" opacity="1.00" d=" M 2154.00 234.01 C 2173.32 233.97 2192.66 233.99 2212.00 234.01 C 2212.00 310.01 2211.99 386.00 2212.00 462.00 C 2272.00 461.99 2332.01 462.04 2392.02 461.93 C 2398.92 461.89 2407.03 462.59 2411.97 468.05 C 2417.89 475.34 2417.02 485.25 2417.01 494.01 C 2417.31 500.65 2415.08 508.52 2408.61 511.58 C 2403.04 513.70 2396.75 512.59 2391.01 513.09 C 2331.34 512.91 2271.67 513.03 2212.00 513.00 C 2211.99 652.99 2212.00 792.99 2212.00 932.98 C 2192.65 933.01 2173.32 933.02 2154.00 932.99 C 2153.86 878.22 2154.28 823.44 2153.76 768.67 C 2153.81 766.98 2153.90 763.59 2153.95 761.90 C 2154.06 585.94 2153.96 409.97 2154.00 234.01 Z" />
<path fill="#999999" opacity="1.00" d=" M 2341.00 569.01 C 2360.32 568.97 2379.65 568.98 2399.00 569.01 C 2399.00 691.67 2399.00 814.33 2399.00 936.99 C 2379.65 937.02 2360.32 937.01 2341.00 936.99 C 2341.00 814.33 2340.99 691.67 2341.00 569.01 Z" />
<path fill="#999999" opacity="1.00" d=" M 2499.27 608.02 C 2499.03 587.53 2518.37 569.10 2538.97 571.04 C 2635.66 570.93 2732.36 571.05 2829.05 570.97 C 2849.04 573.13 2866.50 590.23 2868.45 610.40 C 2869.85 635.56 2868.59 660.79 2869.00 685.98 C 2848.32 686.02 2827.65 686.01 2807.00 685.99 C 2806.98 659.66 2806.99 633.33 2807.00 607.00 C 2725.00 607.00 2643.00 606.99 2561.01 607.00 C 2560.99 701.67 2561.00 796.33 2561.00 891.00 C 2642.99 891.00 2724.99 891.00 2806.99 891.00 C 2807.00 864.66 2806.98 838.34 2807.00 812.01 C 2827.65 811.97 2848.32 811.98 2869.00 812.01 C 2868.75 838.66 2869.45 865.33 2868.79 891.99 C 2868.50 905.22 2861.33 918.02 2850.21 925.20 C 2840.23 932.06 2827.55 931.78 2816.01 932.03 C 2726.00 931.98 2635.99 931.99 2545.98 932.03 C 2537.80 931.82 2529.20 931.92 2521.67 928.30 C 2513.13 923.93 2505.92 916.74 2502.06 907.93 C 2498.38 898.45 2499.14 887.95 2498.90 878.00 C 2499.32 788.01 2498.55 698.00 2499.27 608.02 Z" />
<path fill="#666666" opacity="1.00" d=" M 977.00 1120.00 C 979.50 1120.00 984.50 1120.00 987.00 1120.00 C 987.00 1167.00 987.01 1214.00 987.00 1261.00 C 984.50 1261.00 979.50 1261.00 977.00 1261.00 C 977.00 1214.00 976.99 1167.00 977.00 1120.00 Z" />
<path fill="#666666" opacity="1.00" d=" M 2074.01 1120.00 C 2076.51 1120.00 2081.50 1120.00 2084.00 1120.00 C 2083.99 1167.00 2084.01 1214.00 2083.99 1261.01 C 2082.29 1261.00 2078.90 1260.97 2077.21 1260.96 C 2076.48 1256.26 2075.88 1251.59 2075.07 1246.94 C 2069.43 1251.72 2064.42 1258.03 2056.98 1259.98 C 2043.90 1263.51 2028.41 1263.42 2017.26 1254.72 C 2007.19 1247.90 2002.91 1235.59 2001.87 1223.99 C 1999.57 1205.26 2001.33 1183.53 2015.65 1169.64 C 2032.81 1155.35 2062.72 1157.46 2075.10 1177.05 C 2073.89 1158.05 2073.80 1139.02 2074.01 1120.00 M 2035.44 1170.55 C 2030.40 1171.14 2025.97 1174.03 2022.17 1177.19 C 2010.96 1190.47 2010.03 1209.14 2012.48 1225.59 C 2013.68 1235.68 2019.32 1245.76 2028.63 1250.40 C 2041.24 1255.41 2059.24 1254.79 2067.40 1242.39 C 2073.74 1232.91 2074.49 1221.02 2074.04 1209.98 C 2073.95 1198.79 2072.41 1186.76 2065.28 1177.72 C 2057.62 1169.74 2045.72 1168.97 2035.44 1170.55 Z" />
<path fill="#666666" opacity="1.00" d=" M 1020.31 1127.12 C 1032.60 1122.87 1032.55 1149.21 1020.26 1144.85 C 1015.31 1140.68 1015.32 1131.24 1020.31 1127.12 Z" />
<path fill="#666666" opacity="1.00" d=" M 1223.31 1127.12 C 1235.60 1122.87 1235.55 1149.21 1223.26 1144.85 C 1218.31 1140.68 1218.32 1131.24 1223.31 1127.12 Z" />
<path fill="#666666" opacity="1.00" d=" M 2303.31 1127.10 C 2315.95 1123.19 2315.97 1148.95 2303.21 1144.93 C 2298.85 1140.32 2298.18 1131.38 2303.31 1127.10 Z" />
<path fill="#666666" opacity="1.00" d=" M 692.01 1128.97 C 694.69 1129.02 700.06 1129.12 702.75 1129.17 C 727.77 1167.46 753.21 1205.49 778.78 1243.42 C 778.11 1205.28 777.73 1167.15 778.00 1129.00 C 780.50 1129.00 785.50 1129.00 788.00 1129.00 C 787.98 1173.19 788.04 1217.38 787.97 1261.57 C 784.76 1259.86 779.32 1262.51 777.01 1259.03 C 751.64 1221.31 726.32 1183.54 701.10 1145.71 C 702.31 1184.13 702.03 1222.56 702.00 1261.00 C 699.50 1261.00 694.50 1261.00 692.00 1261.00 C 692.00 1216.98 691.98 1172.98 692.01 1128.97 Z" />
<path fill="#666666" opacity="1.00" d=" M 1266.72 1141.65 C 1267.21 1138.80 1270.46 1138.98 1272.85 1138.26 C 1272.94 1146.14 1273.00 1154.06 1273.03 1161.98 C 1282.34 1161.97 1291.66 1162.01 1301.00 1162.02 C 1300.80 1164.82 1301.09 1168.06 1300.99 1170.97 C 1291.64 1170.97 1282.32 1171.01 1273.00 1171.02 C 1273.28 1192.67 1272.42 1214.34 1273.21 1236.00 C 1274.11 1241.91 1275.18 1249.85 1281.94 1252.02 C 1289.04 1253.90 1296.65 1252.61 1303.96 1252.12 C 1303.98 1254.90 1304.02 1257.70 1304.07 1260.51 C 1294.17 1261.23 1283.21 1264.32 1274.03 1258.99 C 1264.88 1254.77 1263.54 1243.85 1263.21 1234.98 C 1262.61 1213.69 1263.16 1192.38 1263.00 1171.09 C 1258.94 1171.00 1250.83 1170.81 1246.78 1170.72 C 1247.13 1162.09 1256.78 1163.11 1262.75 1160.87 C 1263.87 1154.42 1264.94 1147.94 1266.72 1141.65 Z" />
<path fill="#666666" opacity="1.00" d=" M 1461.68 1139.98 C 1462.97 1139.55 1465.55 1138.68 1466.84 1138.25 C 1466.94 1146.14 1467.00 1154.06 1467.03 1161.98 C 1476.33 1161.97 1485.66 1162.01 1495.00 1162.02 C 1494.77 1164.82 1495.10 1168.06 1494.99 1170.97 C 1485.64 1170.97 1476.32 1171.01 1467.00 1171.02 C 1467.30 1192.91 1466.32 1214.83 1467.36 1236.72 C 1468.28 1242.37 1469.55 1249.95 1475.94 1252.03 C 1483.04 1253.89 1490.65 1252.62 1497.96 1252.12 C 1497.98 1254.90 1498.01 1257.70 1498.07 1260.52 C 1487.87 1261.14 1476.00 1264.68 1466.93 1258.10 C 1460.21 1254.56 1458.06 1246.34 1457.56 1239.35 C 1456.31 1216.61 1457.27 1193.82 1457.00 1171.08 C 1451.96 1170.97 1447.05 1170.99 1442.07 1170.88 C 1441.24 1162.00 1451.13 1163.12 1456.85 1160.81 C 1458.46 1153.89 1458.81 1146.52 1461.68 1139.98 Z" />
<path fill="#666666" opacity="1.00" d=" M 849.28 1161.49 C 856.02 1160.52 862.88 1160.75 869.66 1161.44 C 885.44 1163.94 897.94 1177.58 900.96 1193.00 C 905.71 1212.89 903.97 1236.58 888.83 1251.82 C 875.67 1264.20 854.39 1264.95 838.69 1257.31 C 817.71 1245.51 813.64 1218.28 817.64 1196.61 C 819.83 1179.94 832.26 1164.46 849.28 1161.49 M 852.43 1170.49 C 837.46 1172.06 828.99 1187.46 827.24 1201.12 C 826.63 1213.91 826.19 1228.24 833.54 1239.44 C 837.55 1244.78 842.87 1249.59 849.30 1251.77 C 860.72 1254.77 874.47 1252.86 882.67 1243.69 C 893.02 1231.27 894.63 1213.76 891.48 1198.42 C 890.06 1188.59 884.80 1179.03 876.12 1173.86 C 869.22 1169.21 860.29 1169.99 852.43 1170.49 Z" />
<path fill="#666666" opacity="1.00" d=" M 1088.67 1161.70 C 1096.84 1160.88 1105.78 1159.64 1113.48 1163.38 C 1119.68 1165.94 1123.42 1171.82 1127.55 1176.82 C 1132.36 1169.77 1139.49 1163.90 1147.88 1161.86 C 1156.88 1160.46 1166.56 1159.79 1175.04 1163.89 C 1183.65 1167.30 1188.68 1176.51 1189.51 1185.41 C 1192.50 1210.48 1190.41 1235.81 1190.99 1261.00 C 1188.50 1261.00 1183.50 1261.00 1181.00 1261.00 C 1180.86 1239.33 1181.29 1217.67 1180.86 1196.02 C 1180.64 1189.10 1179.29 1181.71 1174.65 1176.32 C 1168.83 1168.67 1157.41 1169.01 1149.02 1171.07 C 1137.85 1173.36 1131.31 1184.68 1130.59 1195.41 C 1129.14 1217.23 1130.36 1239.13 1130.00 1261.00 C 1127.50 1261.00 1122.50 1261.00 1120.00 1261.00 C 1119.73 1237.42 1120.55 1213.84 1119.68 1190.29 C 1119.62 1182.01 1114.53 1172.92 1105.99 1171.05 C 1098.42 1168.79 1090.05 1169.62 1082.93 1172.89 C 1076.25 1176.51 1072.10 1183.59 1071.19 1191.01 C 1066.98 1214.07 1069.75 1237.70 1069.01 1261.00 C 1066.51 1261.00 1061.50 1261.00 1059.00 1261.00 C 1058.99 1227.99 1058.99 1194.99 1059.00 1161.99 C 1061.77 1161.79 1064.99 1162.08 1067.88 1162.03 C 1068.23 1166.29 1068.63 1170.55 1069.02 1174.84 C 1074.74 1169.52 1080.49 1162.89 1088.67 1161.70 Z" />
<path fill="#666666" opacity="1.00" d=" M 1328.09 1166.11 C 1345.31 1157.62 1365.87 1160.41 1383.48 1166.38 C 1382.32 1169.23 1381.16 1172.10 1379.52 1174.72 C 1364.42 1172.31 1347.61 1165.22 1333.21 1174.19 C 1325.97 1177.97 1325.46 1189.28 1331.74 1194.26 C 1346.11 1206.71 1367.90 1206.55 1380.79 1221.23 C 1390.16 1234.26 1382.50 1255.13 1366.89 1258.96 C 1350.06 1263.96 1331.48 1263.06 1315.10 1256.75 C 1315.10 1253.98 1315.10 1248.44 1315.10 1245.67 C 1329.40 1251.17 1345.08 1254.92 1360.33 1251.34 C 1365.74 1249.37 1371.81 1246.83 1374.05 1241.04 C 1377.23 1235.03 1373.64 1228.01 1368.76 1224.26 C 1355.16 1213.94 1336.90 1212.45 1323.92 1201.09 C 1313.96 1191.64 1315.76 1172.76 1328.09 1166.11 Z" />
<path fill="#666666" opacity="1.00" d=" M 1545.28 1161.49 C 1552.01 1160.52 1558.87 1160.75 1565.66 1161.44 C 1581.44 1163.94 1593.94 1177.58 1596.96 1193.00 C 1601.50 1212.24 1600.15 1234.94 1586.28 1250.26 C 1576.80 1261.03 1561.09 1263.51 1547.55 1261.51 C 1537.31 1260.22 1528.02 1254.28 1522.05 1245.97 C 1513.85 1235.24 1512.43 1221.07 1512.18 1208.03 C 1512.76 1194.57 1516.46 1180.20 1526.81 1170.83 C 1531.79 1165.80 1538.56 1163.25 1545.28 1161.49 M 1548.43 1170.49 C 1533.11 1172.12 1524.68 1188.08 1523.11 1202.02 C 1522.34 1216.33 1522.35 1233.66 1533.73 1244.28 C 1546.41 1258.26 1572.77 1255.51 1581.94 1238.99 C 1586.56 1232.23 1587.86 1223.89 1588.95 1215.97 C 1589.15 1201.42 1586.91 1184.09 1573.96 1175.07 C 1566.81 1169.32 1557.00 1169.78 1548.43 1170.49 Z" />
<path fill="#666666" opacity="1.00" d=" M 1700.44 1161.59 C 1715.93 1158.67 1733.74 1162.11 1743.68 1175.31 C 1756.21 1193.32 1756.87 1217.99 1749.08 1238.05 C 1742.63 1254.16 1725.27 1264.22 1708.03 1261.98 C 1689.35 1262.41 1673.24 1247.52 1669.30 1229.76 C 1665.20 1211.32 1665.68 1189.52 1678.32 1174.30 C 1683.77 1167.58 1691.92 1163.00 1700.44 1161.59 M 1702.44 1170.57 C 1688.51 1172.92 1679.90 1186.93 1678.19 1200.13 C 1676.46 1213.78 1677.03 1229.10 1685.36 1240.67 C 1696.27 1257.42 1724.68 1257.41 1735.71 1240.75 C 1745.06 1227.11 1744.84 1209.22 1741.30 1193.67 C 1738.88 1185.03 1733.45 1176.67 1724.97 1173.07 C 1718.17 1169.21 1709.90 1169.66 1702.44 1170.57 Z" />
<path fill="#666666" opacity="1.00" d=" M 1916.09 1162.08 C 1923.92 1160.31 1932.06 1161.42 1940.04 1161.68 C 1939.45 1164.68 1939.31 1167.93 1938.87 1171.00 C 1930.82 1170.68 1922.22 1168.95 1914.69 1172.71 C 1905.32 1178.75 1899.33 1189.57 1898.61 1200.66 C 1897.29 1220.73 1898.22 1240.88 1898.01 1261.00 C 1895.51 1261.00 1890.50 1261.00 1888.00 1261.00 C 1887.99 1227.99 1887.99 1194.99 1888.00 1161.99 C 1890.66 1161.97 1893.34 1161.98 1896.06 1162.03 C 1896.50 1167.72 1896.85 1173.44 1897.24 1179.17 C 1902.10 1172.29 1907.45 1164.37 1916.09 1162.08 Z" />
<path fill="#666666" opacity="1.00" d=" M 2137.21 1163.27 C 2151.24 1158.58 2169.26 1159.39 2179.30 1171.70 C 2189.64 1182.71 2190.23 1198.78 2190.16 1213.00 C 2166.71 1213.01 2143.28 1212.95 2119.85 1213.04 C 2121.17 1223.97 2122.70 1235.89 2130.89 1244.09 C 2145.90 1258.08 2168.95 1253.84 2186.43 1246.83 C 2186.15 1249.21 2185.58 1253.99 2185.30 1256.37 C 2177.03 1260.82 2167.22 1261.72 2158.01 1262.08 C 2145.67 1262.81 2132.21 1259.81 2123.35 1250.67 C 2111.31 1239.05 2109.42 1220.93 2110.19 1205.12 C 2111.34 1187.98 2120.13 1169.40 2137.21 1163.27 M 2136.49 1174.43 C 2126.24 1180.75 2122.51 1192.76 2120.88 1203.97 C 2140.55 1204.03 2160.22 1204.04 2179.91 1203.95 C 2178.75 1195.70 2177.87 1187.08 2172.90 1180.08 C 2165.44 1168.19 2147.46 1166.95 2136.49 1174.43 Z" />
<path fill="#666666" opacity="1.00" d=" M 2217.34 1168.37 C 2226.55 1161.19 2238.83 1160.70 2250.00 1161.00 C 2258.82 1160.89 2267.27 1163.70 2275.43 1166.78 C 2274.29 1169.63 2273.15 1172.49 2271.97 1175.33 C 2256.83 1171.13 2238.33 1165.16 2224.28 1175.31 C 2220.09 1177.87 2219.21 1183.32 2220.16 1187.85 C 2221.55 1194.11 2227.66 1197.19 2232.82 1200.13 C 2244.80 1205.87 2258.15 1208.93 2268.94 1217.02 C 2280.23 1225.42 2279.46 1244.26 2269.31 1253.30 C 2263.72 1258.66 2255.60 1260.50 2248.16 1261.38 C 2234.54 1262.47 2219.64 1262.81 2207.43 1255.74 C 2207.24 1253.20 2206.86 1248.11 2206.67 1245.57 C 2217.14 1249.13 2227.83 1252.77 2239.04 1252.76 C 2247.14 1252.99 2255.94 1251.71 2262.43 1246.44 C 2269.41 1241.13 2268.72 1228.36 2260.94 1224.09 C 2250.80 1216.46 2238.12 1213.73 2227.00 1207.97 C 2220.09 1204.71 2213.25 1199.83 2210.67 1192.32 C 2208.71 1183.88 2210.66 1174.24 2217.34 1168.37 Z" />
<path fill="#666666" opacity="1.00" d=" M 2360.43 1162.51 C 2380.12 1159.19 2400.15 1163.12 2420.00 1162.07 C 2419.96 1164.62 2419.95 1167.19 2419.99 1169.78 C 2413.32 1170.05 2406.79 1170.38 2400.21 1170.89 C 2408.71 1183.18 2409.99 1201.20 2400.07 1213.07 C 2390.73 1223.64 2375.53 1223.59 2362.69 1224.88 C 2354.40 1226.38 2348.65 1241.25 2358.31 1244.69 C 2375.12 1248.21 2394.78 1242.33 2409.77 1253.25 C 2420.79 1262.59 2419.82 1280.61 2411.18 1291.20 C 2401.12 1301.74 2385.81 1303.89 2372.01 1304.28 C 2361.06 1304.43 2349.34 1303.53 2340.30 1296.65 C 2328.92 1288.96 2327.74 1271.36 2336.14 1261.10 C 2340.30 1256.59 2345.89 1253.60 2351.68 1251.71 C 2347.40 1247.82 2342.15 1242.79 2344.41 1236.36 C 2345.12 1229.85 2350.23 1225.41 2354.87 1221.40 C 2347.83 1216.74 2340.87 1210.50 2339.51 1201.73 C 2334.95 1185.81 2343.63 1166.51 2360.43 1162.51 M 2367.38 1169.38 C 2362.17 1169.69 2357.94 1172.91 2354.29 1176.28 C 2346.02 1185.96 2346.45 1202.19 2356.22 1210.76 C 2366.29 1218.13 2382.19 1218.24 2391.43 1209.44 C 2400.90 1198.08 2399.10 1175.55 2383.54 1170.55 C 2378.42 1168.44 2372.69 1168.77 2367.38 1169.38 M 2363.43 1256.45 C 2357.40 1256.91 2351.00 1258.14 2346.54 1262.52 C 2340.56 1268.45 2339.67 1278.29 2343.31 1285.69 C 2348.45 1292.32 2357.12 1295.68 2365.41 1295.59 C 2376.60 1295.75 2388.70 1295.48 2398.58 1289.49 C 2404.42 1285.34 2407.57 1278.03 2407.85 1270.99 C 2407.55 1265.47 2403.86 1259.96 2398.44 1258.44 C 2387.18 1254.81 2375.01 1255.93 2363.43 1256.45 Z" />
<path fill="#666666" opacity="1.00" d=" M 2470.66 1161.66 C 2480.98 1160.91 2492.62 1159.28 2501.89 1165.18 C 2510.70 1169.66 2514.66 1180.07 2515.44 1189.43 C 2516.80 1213.25 2515.64 1237.14 2516.00 1261.00 C 2513.50 1261.00 2508.50 1261.00 2506.00 1261.00 C 2505.95 1240.99 2506.02 1220.99 2506.09 1200.99 C 2506.17 1193.12 2505.49 1184.68 2501.00 1177.98 C 2497.53 1174.38 2493.43 1170.87 2488.17 1170.66 C 2478.02 1169.13 2466.78 1169.67 2458.55 1176.51 C 2450.85 1182.43 2449.45 1192.84 2448.65 1201.85 C 2447.42 1221.53 2448.13 1241.28 2448.01 1261.00 C 2445.50 1261.00 2440.50 1261.00 2438.00 1261.00 C 2437.99 1227.99 2437.98 1195.00 2438.00 1162.00 C 2440.61 1161.81 2444.15 1162.07 2447.00 1162.01 C 2447.33 1166.29 2447.73 1170.58 2448.10 1174.89 C 2454.17 1168.54 2461.66 1162.70 2470.66 1161.66 Z" />
<path fill="#666666" opacity="1.00" d=" M 2564.80 1161.63 C 2578.69 1159.73 2592.87 1161.64 2606.07 1166.21 C 2604.92 1169.16 2603.79 1172.12 2602.69 1175.09 C 2590.77 1172.18 2578.59 1168.53 2566.21 1170.29 C 2561.21 1172.12 2555.05 1173.17 2552.02 1178.02 C 2547.32 1184.27 2551.15 1193.98 2557.87 1197.16 C 2570.56 1204.82 2585.55 1207.81 2597.99 1216.01 C 2610.58 1224.03 2610.51 1244.18 2599.28 1253.27 C 2595.87 1256.58 2591.48 1258.57 2586.95 1259.74 C 2570.83 1263.55 2553.56 1262.88 2538.10 1256.75 C 2538.10 1253.99 2538.09 1248.48 2538.09 1245.72 C 2549.97 1250.36 2562.56 1253.82 2575.46 1252.57 C 2582.98 1252.22 2590.34 1248.99 2595.50 1243.48 C 2599.93 1237.47 2597.77 1228.44 2591.73 1224.31 C 2578.92 1214.51 2561.88 1212.67 2548.97 1203.05 C 2538.12 1195.46 2536.79 1176.79 2547.70 1168.69 C 2552.27 1164.26 2558.67 1162.61 2564.80 1161.63 Z" />
<path fill="#666666" opacity="1.00" d=" M 1018.00 1162.00 C 1020.50 1162.00 1025.50 1162.00 1028.00 1162.00 C 1028.00 1195.00 1028.00 1227.99 1028.00 1261.00 C 1025.50 1261.00 1020.50 1261.00 1018.00 1261.00 C 1017.99 1228.00 1017.99 1195.00 1018.00 1162.00 Z" />
<path fill="#666666" opacity="1.00" d=" M 1221.00 1162.00 C 1223.50 1162.00 1228.50 1162.00 1231.00 1162.00 C 1231.00 1195.00 1231.00 1227.99 1231.00 1261.00 C 1228.50 1261.00 1223.50 1261.00 1221.00 1261.00 C 1220.99 1228.00 1220.99 1195.00 1221.00 1162.00 Z" />
<path fill="#666666" opacity="1.00" d=" M 1779.00 1162.00 C 1781.50 1162.00 1786.50 1162.00 1789.00 1162.00 C 1789.26 1185.28 1788.45 1208.59 1789.28 1231.87 C 1789.46 1240.40 1794.74 1249.11 1803.28 1251.53 C 1815.35 1254.59 1829.93 1253.47 1838.82 1243.83 C 1845.52 1236.40 1845.76 1225.94 1846.55 1216.56 C 1847.39 1198.38 1846.92 1180.18 1846.99 1162.00 C 1849.70 1161.81 1853.11 1162.06 1856.00 1162.01 C 1856.00 1195.00 1856.00 1228.00 1856.00 1261.01 C 1853.31 1260.99 1850.66 1260.97 1848.03 1260.96 C 1847.56 1256.90 1847.10 1252.85 1846.69 1248.80 C 1840.36 1254.15 1833.46 1259.70 1825.02 1260.98 C 1813.38 1263.07 1799.97 1263.41 1790.05 1255.98 C 1782.78 1249.86 1779.08 1240.36 1779.18 1230.99 C 1778.53 1208.00 1779.22 1184.99 1779.00 1162.00 Z" />
<path fill="#666666" opacity="1.00" d=" M 2301.00 1162.00 C 2303.50 1162.00 2308.50 1162.00 2311.00 1162.00 C 2311.00 1195.00 2311.00 1227.99 2311.00 1261.00 C 2308.50 1261.00 2303.50 1261.00 2301.00 1261.00 C 2300.99 1228.00 2300.99 1195.00 2301.00 1162.00 Z" />
</svg>