<svg width="240" height="112" viewBox="0 0 240 112" fill="none" xmlns="http://www.w3.org/2000/svg">
<path fill-rule="evenodd" clip-rule="evenodd" d="M14.9148 0.960016H75.3641V14.2C57.2935 14.2214 39.2214 14.2 21.1534 14.2C17.0188 14.2 13.6375 17.5814 13.6375 21.716C13.6375 51.6667 13.6375 81.6187 13.6375 111.572H0.293457V17.2307C0.293457 7.09469 8.84681 0.960016 14.9148 0.960016ZM32.2748 32.8213V45.5067H75.3641V58.748H18.9308V21.4414C18.9308 20.3947 19.8308 19.2414 20.8348 19.5374H75.3641V32.8213H32.2748ZM18.9308 64.1293V111.572H32.2601V77.3694H75.3641V64.0853L18.9308 64.1293Z" fill="#CC0000"/>
<path fill-rule="evenodd" clip-rule="evenodd" d="M92.8987 111.572L92.8974 21.4907C92.8974 21.4373 92.8974 21.3813 92.8974 21.3267C92.8974 17.744 95.2827 14.5974 98.732 13.632C101.648 12.8147 105.907 13.632 108.692 18.4L130.245 55.528L151.069 91.432C152.149 93.2707 153.652 94.144 155.065 93.7653C156.217 93.4307 157.009 92.3734 157.009 91.176C157.009 91.1254 157.008 91.0733 157.005 91.024V21.4907C157.005 21.4373 157.004 21.3813 157.004 21.3267C157.004 17.744 159.391 14.5974 162.839 13.632C165.756 12.8294 169.969 13.632 172.771 18.4L192.733 52.8014L215.133 91.4187C216.228 93.2547 217.716 94.1307 219.129 93.752C220.281 93.416 221.072 92.36 221.072 91.16C221.072 91.1093 221.071 91.06 221.069 91.0094V0.960016H207.755V54.5814C207.755 54.5814 185.5 16.272 184.48 14.536C170.364 -9.43864 143.647 0.462702 143.647 21.112V54.58C143.647 54.58 121.408 16.272 120.388 14.536C106.271 -9.43864 79.5547 0.462702 79.5547 21.112V111.572H92.8987Z" fill="#CC0000"/>
<path fill-rule="evenodd" clip-rule="evenodd" d="M226.363 0.959988V91.024C226.364 91.0773 226.364 91.1347 226.364 91.1893C226.364 94.772 223.979 97.9173 220.529 98.884C219.857 99.0666 219.16 99.16 218.464 99.16C218.463 99.16 218.46 99.16 218.459 99.16C215.104 99.056 212.072 97.1173 210.569 94.1147L188.125 55.528L168.177 21.0973C167.097 19.2613 165.624 18.3853 164.223 18.764C163.087 19.1093 162.309 20.1587 162.309 21.3467C162.309 21.4 162.311 21.4533 162.313 21.5053V91.024C162.315 91.0773 162.316 91.1347 162.316 91.1893C162.316 94.772 159.928 97.9173 156.48 98.884C153.564 99.7 149.305 98.884 146.519 94.1147L125.68 58.1827L104.127 21.0973C103.033 19.2613 101.547 18.3853 100.132 18.764C98.98 19.1 98.188 20.156 98.188 21.3547C98.188 21.4053 98.188 21.456 98.192 21.5053V111.572H111.521V57.9493C111.521 57.9493 133.76 96.26 134.78 97.9947C148.897 121.969 175.612 112.067 175.612 91.4186V57.9493C175.612 57.9493 197.852 96.26 198.873 97.9947C212.989 121.969 239.705 112.067 239.705 91.4186V0.959988H226.363Z" fill="#CC0000"/>
</svg>
