<svg width="285" height="239" viewBox="0 0 285 239" fill="none" xmlns="http://www.w3.org/2000/svg">
<g clip-path="url(#clip0_117_34)">
<mask id="path-1-inside-1_117_34" fill="white">
<path d="M190.929 85.0711L198 78L212.142 92.1421L198 106.284L183.858 92.1421"/>
</mask>
<path d="M190.929 85.0711L198 78L212.142 92.1421L198 106.284L183.858 92.1421" fill="#1A284A"/>
<path d="M198 78L198.707 77.2929L198 76.5858L197.293 77.2929L198 78ZM212.142 92.1421L212.849 92.8492L213.556 92.1421L212.849 91.435L212.142 92.1421ZM198 106.284L197.293 106.991L198 107.698L198.707 106.991L198 106.284ZM191.636 85.7782L198.707 78.7071L197.293 77.2929L190.222 84.364L191.636 85.7782ZM197.293 78.7071L211.435 92.8492L212.849 91.435L198.707 77.2929L197.293 78.7071ZM211.435 91.435L197.293 105.577L198.707 106.991L212.849 92.8492L211.435 91.435ZM198.707 105.577L184.565 91.435L183.151 92.8492L197.293 106.991L198.707 105.577Z" fill="#FC6767" mask="url(#path-1-inside-1_117_34)"/>
<path d="M191.636 85.071L184.565 92.1421" stroke="#FC6767"/>
<path d="M194.005 88.1966L193.429 88.7729L195.267 90.6114L190.034 95.844L191.339 97.1486L196.572 91.916L198.41 93.7545L198.976 93.1888C199.294 92.8706 199.552 92.6125 199.545 92.5913C199.556 92.5806 198.438 91.4563 197.077 90.0952L194.592 87.6309L194.012 88.2107L194.005 88.1966ZM202.858 95.8687C203.134 96.3142 203.247 96.7526 203.236 97.2582C203.225 97.5304 203.172 97.9723 203.123 98.0501C203.102 98.0713 202.076 97.8734 201.475 97.7319C201.451 97.7284 201.454 97.6117 201.49 97.4632C201.567 97.0178 201.493 96.7172 201.221 96.4026C200.825 95.95 200.319 95.8899 199.948 96.2612C199.835 96.3743 199.792 96.4592 199.743 96.5935C199.644 96.8834 199.704 97.1769 200.012 97.9653C200.588 99.4113 200.74 100.136 200.595 100.811C200.436 101.572 199.782 102.36 199.039 102.699C198.223 103.064 197.272 102.912 196.352 102.254C196.062 102.049 195.504 101.476 195.285 101.165C194.825 100.493 194.567 99.6695 194.599 98.973C194.609 98.7007 194.737 98.0714 194.776 98.0608L194.995 98.1103L195.833 98.333L196.466 98.4992L196.434 98.7149C196.367 99.0154 196.381 99.5245 196.448 99.7614C196.671 100.458 197.318 101.041 197.897 101.07C198.148 101.08 198.332 101.009 198.509 100.833C198.672 100.67 198.721 100.571 198.764 100.366C198.806 100.097 198.707 99.7437 198.353 98.8244C197.933 97.7815 197.82 97.2723 197.834 96.6784C197.851 96.3283 197.986 95.8899 198.152 95.5823C198.304 95.3242 198.788 94.8045 199.039 94.6525C199.899 94.0974 200.927 94.1363 201.833 94.7585C202.129 94.9565 202.692 95.5611 202.872 95.8687L202.858 95.8687Z" fill="#FC6767"/>
<path d="M199.919 171.024L206.649 169.23L203.58 174.685L198.126 177.753L199.919 171.024ZM198.024 170.513L196.231 177.243L193.033 171.842L193.087 165.576L198.024 170.513ZM206.139 167.334L199.409 169.128L194.472 164.192L200.738 164.137L206.139 167.334ZM206.158 174.362L210.254 167.254L203.133 163.135L200.838 163.766L199.162 162.066L190.947 162.053L190.961 170.266L190.961 170.266L192.661 171.941L192.032 174.237L196.15 181.358L203.257 177.263L203.852 174.957L206.158 174.362L206.158 174.362Z" fill="#FC6767"/>
<path d="M18.8789 99.8822C19.9309 98.8302 19.6163 96.5217 18.2238 93.8926C20.7465 92.2979 22.1781 90.4538 21.7938 89.0207C21.7073 88.6882 21.5207 88.3851 21.2532 88.1176L20.5314 88.8394C20.6796 88.9877 20.7697 89.136 20.8146 89.2909C21.0003 89.9817 20.2291 91.1332 18.8444 92.2214C18.5046 92.4903 18.1262 92.7527 17.7284 93.0088C17.2521 92.2218 16.6823 91.4124 16.0349 90.6097C16.1987 89.5758 16.2914 88.5808 16.3128 87.6506C18.3441 87.7204 19.8675 88.1691 20.5378 88.8394L21.2597 88.1176C20.3735 87.2314 18.5789 86.7057 16.3054 86.6333C16.2265 84.3662 15.6944 82.5782 14.8082 81.692L14.0864 82.4138C14.7534 83.0809 15.2086 84.6043 15.2848 86.6291C14.3579 86.6538 13.3661 86.7432 12.3387 86.9135C11.5328 86.2629 10.7234 85.693 9.93316 85.22C10.1827 84.8222 10.4419 84.4535 10.7043 84.1137C11.7893 82.7258 12.9376 81.9513 13.6284 82.1306C13.7833 82.1691 13.9349 82.2688 14.0831 82.4171L14.805 81.6952C14.5343 81.4245 14.2311 81.2379 13.8954 81.1482C12.4655 80.7671 10.6278 82.1987 9.04289 84.7182C6.41701 83.3353 4.11817 83.0239 3.0694 84.0727C2.0174 85.1247 2.33198 87.4332 3.72456 90.0623C1.20183 91.6569 -0.229811 93.5011 0.154547 94.9342C0.241005 95.2667 0.427648 95.5698 0.698337 95.8405C1.58452 96.7267 3.37905 97.2524 5.65259 97.3248C5.7315 99.5919 6.26363 101.38 7.14981 102.266C7.4205 102.537 7.72367 102.723 8.05936 102.813C9.48926 103.194 11.3269 101.763 12.9119 99.2431C15.5281 100.623 17.8301 100.931 18.8789 99.8822ZM16.8423 93.5275C16.3055 93.8258 15.7267 94.1081 15.1286 94.371C15.2555 93.98 15.3759 93.5824 15.4834 93.172C15.5941 92.7648 15.6887 92.3545 15.7768 91.9506C16.1664 92.4761 16.5237 93.0018 16.8423 93.5275ZM11.919 95.4989C11.2307 95.6845 10.5586 95.8411 9.90592 95.9588C9.38369 95.5207 8.87443 95.0568 8.38462 94.567C7.89802 94.0804 7.43408 93.5711 6.996 93.0554C7.11373 92.4027 7.2638 91.7306 7.44619 91.0455C7.62532 90.3765 7.83348 89.7237 8.06421 89.0869C8.69775 88.853 9.35708 88.6448 10.0228 88.4624C10.7111 88.2768 11.3833 88.1203 12.0359 88.0025C12.5582 88.4406 13.0674 88.9046 13.5572 89.3944C14.0438 89.881 14.5078 90.3902 14.9458 90.906C14.8281 91.5587 14.678 92.2308 14.4957 92.9159C14.3165 93.5848 14.1084 94.2377 13.8776 94.8744C13.2409 95.1052 12.5848 95.3166 11.919 95.4989ZM13.3807 96.119C13.121 96.7267 12.8355 97.3087 12.5371 97.852C12.0114 97.5334 11.4793 97.1761 10.9505 96.7833C11.3576 96.6919 11.7713 96.5941 12.1817 96.4802C12.5889 96.3694 12.9896 96.2458 13.3807 96.119ZM6.65931 96.3052C6.67036 95.6947 6.71702 95.0487 6.79927 94.3735C7.07635 94.6765 7.3631 94.9827 7.6628 95.2824C7.96571 95.5853 8.27188 95.8785 8.58131 96.1555C7.91256 96.2442 7.26652 96.2909 6.65931 96.3052ZM6.16833 92.0011C5.77871 91.4755 5.42139 90.9499 5.10283 90.4242C5.63962 90.1258 6.21837 89.8436 6.81645 89.5806C6.68961 89.9717 6.56923 90.3692 6.46173 90.7796C6.35423 91.19 6.25643 91.5972 6.16833 92.0011ZM15.2858 87.6465C15.2747 88.2569 15.2281 88.903 15.1458 89.5781C14.8687 89.2752 14.582 88.969 14.2823 88.6693C13.9794 88.3664 13.6732 88.0732 13.3638 87.7961C14.0325 87.7074 14.6786 87.6608 15.2858 87.6465ZM10.9946 87.1684C10.5875 87.2597 10.1738 87.3575 9.76341 87.4715C9.35622 87.5822 8.9587 87.7026 8.56762 87.8294C8.82736 87.2217 9.11287 86.6397 9.41122 86.0964C9.93371 86.4182 10.4658 86.7755 10.9946 87.1684ZM4.02562 88.3047C3.37364 86.6751 3.2766 85.2963 3.7848 84.7881C4.29299 84.2799 5.67509 84.3737 7.30139 85.0289C7.69829 85.1863 8.10802 85.3824 8.52095 85.5946C8.07019 86.4127 7.65154 87.3147 7.27472 88.2909C6.30497 88.6678 5.40941 89.0864 4.59775 89.5371C4.37907 89.1178 4.18621 88.7048 4.02562 88.3047ZM1.13375 94.6639C0.947968 93.9732 1.71921 92.8217 3.10395 91.7334C3.44367 91.4646 3.82213 91.2022 4.21995 90.9461C4.69619 91.7331 5.26603 92.5425 5.91341 93.3452C5.74961 94.3791 5.65695 95.374 5.6355 96.3042C3.60418 96.2345 2.08077 95.7858 1.41049 95.1155C1.26871 94.9672 1.17539 94.8156 1.13375 94.6639ZM11.244 99.8411C10.159 101.229 9.0107 102.004 8.31994 101.824C8.165 101.786 8.01343 101.686 7.8652 101.538C7.19814 100.871 6.74294 99.3474 6.66672 97.3225C7.5937 97.2978 8.58541 97.2084 9.61283 97.0382C10.4188 97.6888 11.2282 98.2586 12.0184 98.7316C11.7656 99.1327 11.5096 99.5046 11.244 99.8411ZM14.6437 98.9228C14.2468 98.7654 13.8371 98.5693 13.4241 98.3571C13.8749 97.5389 14.2936 96.6369 14.6704 95.6607C15.6401 95.2839 16.5357 94.8653 17.3473 94.4145C17.566 94.8339 17.7589 95.2469 17.9227 95.6502C18.5747 97.2797 18.6717 98.6586 18.1635 99.1668C17.6521 99.6718 16.27 99.578 14.6437 98.9228Z" fill="#FC6767"/>
<path d="M9.49166 93.4534C10.305 94.2668 11.6266 94.2638 12.4436 93.4468C13.2606 92.6299 13.2636 91.3082 12.4502 90.4949C11.6369 89.6816 10.3152 89.6845 9.49826 90.5015C8.68128 91.3185 8.67833 92.6401 9.49166 93.4534Z" fill="#FC6767"/>
<path d="M111.909 162.791C112.041 162.924 112.146 163.085 112.213 163.265L114.75 170.328C114.875 170.697 114.839 171.112 114.633 171.432L110.72 177.717C110.514 178.055 110.166 178.271 109.769 178.306L102.364 179.071C101.978 179.116 101.59 178.973 101.315 178.698L95.9928 173.376C95.7177 173.1 95.5742 172.713 95.6194 172.326L96.3841 164.921C96.4293 164.534 96.6445 164.186 96.9738 163.971L103.259 160.057C103.597 159.852 104.003 159.806 104.362 159.94L111.435 162.468C111.605 162.544 111.776 162.659 111.909 162.791L111.909 162.791ZM112.35 162.35C112.151 162.151 111.905 161.998 111.63 161.893L104.558 159.366C104 159.165 103.405 159.228 102.907 159.537L96.6219 163.45C96.1233 163.759 95.8049 164.267 95.7419 164.861L94.9773 172.266C94.9142 172.842 95.1247 173.409 95.5326 173.817L100.854 179.139C101.262 179.547 101.83 179.757 102.405 179.694L109.81 178.929C110.395 178.876 110.913 178.548 111.222 178.049L115.135 171.765C115.444 171.266 115.507 170.672 115.306 170.114L112.797 163.06C112.701 162.795 112.549 162.549 112.35 162.35Z" fill="#FC6767"/>
<path d="M109.065 175.254C109.055 175.245 109.055 175.245 109.065 175.254L109.055 175.245C109.046 175.235 109.037 175.226 109.046 175.216C109.027 175.197 109.017 175.169 108.998 175.15C108.941 175.074 108.894 175.008 108.837 174.951C108.808 174.922 108.78 174.894 108.751 174.847L108.742 174.837C108.562 174.619 108.419 174.439 108.314 174.24C108.276 174.146 108.295 174.089 108.313 174.033C108.323 174.023 108.313 174.014 108.322 174.004L108.237 173.844C108.737 173.46 109.163 172.989 109.494 172.453C109.828 171.912 110.065 171.316 110.193 170.692L110.373 170.702L110.391 170.683C110.438 170.636 110.495 170.599 110.58 170.59C110.797 170.6 111.024 170.658 111.298 170.726C111.345 170.735 111.383 170.754 111.43 170.764C111.515 170.793 111.591 170.812 111.685 170.831C111.704 170.832 111.732 170.841 111.77 170.841C111.789 170.841 111.799 170.851 111.808 170.842C112.053 170.862 112.27 170.702 112.297 170.485C112.315 170.372 112.267 170.249 112.182 170.164C112.106 170.088 112.012 170.05 111.898 170.03L111.86 170.03C111.832 170.021 111.804 170.03 111.775 170.02C111.681 170.02 111.606 170.019 111.521 170.028C111.483 170.028 111.436 170.037 111.389 170.028C111.115 170.036 110.879 170.025 110.671 169.986C110.624 169.977 110.586 169.958 110.557 169.929C110.539 169.91 110.519 169.891 110.51 169.863L110.491 169.844L110.302 169.805C110.31 169.55 110.29 169.305 110.27 169.059C110.141 168.045 109.723 167.086 109.067 166.297L109.179 166.166L109.179 166.128C109.179 166.071 109.169 166.005 109.225 165.93C109.366 165.77 109.554 165.62 109.761 165.451L109.77 165.442C109.798 165.414 109.845 165.386 109.883 165.367C109.949 165.32 110.015 165.273 110.09 165.217L110.174 165.133C110.343 164.964 110.351 164.69 110.19 164.529C110.114 164.453 110.001 164.414 109.888 164.414C109.774 164.413 109.671 164.46 109.586 164.544L109.511 164.62C109.445 164.685 109.399 164.751 109.361 164.826C109.342 164.864 109.314 164.892 109.286 164.939L109.277 164.949C109.108 165.155 108.967 165.353 108.798 165.484C108.723 165.54 108.657 165.531 108.6 165.53L108.563 165.53L108.431 165.643C108.241 165.491 108.052 165.339 107.844 165.206C106.953 164.635 105.942 164.356 104.914 164.379L104.884 164.218L104.865 164.199C104.846 164.181 104.818 164.171 104.799 164.152C104.771 164.123 104.752 164.086 104.742 164.038C104.703 163.831 104.702 163.585 104.71 163.312C104.71 163.274 104.719 163.227 104.709 163.179C104.718 163.094 104.718 163.019 104.717 162.925C104.717 162.906 104.708 162.877 104.707 162.84C104.707 162.821 104.698 162.811 104.707 162.802C104.697 162.695 104.649 162.595 104.574 162.518C104.488 162.433 104.365 162.385 104.252 162.403C104.035 162.43 103.876 162.647 103.896 162.892C103.906 162.902 103.896 162.911 103.906 162.92C103.915 162.949 103.906 162.977 103.916 163.005C103.935 163.1 103.954 163.175 103.983 163.261C104.002 163.298 104.012 163.346 104.021 163.393C104.089 163.667 104.147 163.894 104.157 164.111C104.158 164.205 104.111 164.252 104.064 164.299L104.045 164.318L104.055 164.497C104.008 164.507 103.97 164.506 103.933 164.525C102.716 164.793 101.663 165.486 100.922 166.473L100.761 166.387C100.752 166.397 100.743 166.387 100.733 166.396C100.677 166.415 100.611 166.424 100.526 166.395C100.336 166.3 100.147 166.148 99.9288 165.968L99.9192 165.958C99.8908 165.93 99.8528 165.892 99.815 165.873C99.7581 165.816 99.6918 165.768 99.616 165.711C99.5971 165.692 99.5687 165.683 99.5497 165.664C99.5402 165.654 99.5307 165.645 99.5118 165.645C99.3035 165.511 99.0395 165.567 98.9178 165.745C98.8147 165.905 98.8535 166.113 99.0053 166.265C99.0337 166.293 99.0527 166.312 99.0906 166.331C99.1001 166.341 99.1096 166.35 99.119 166.341C99.1379 166.36 99.1663 166.37 99.1852 166.389C99.2704 166.436 99.3366 166.465 99.4218 166.494C99.4596 166.513 99.5068 166.522 99.5446 166.541L99.5541 166.551C99.8001 166.665 100.018 166.77 100.188 166.903L100.207 166.922C100.264 166.979 100.274 167.045 100.284 167.093C100.293 167.102 100.284 167.111 100.293 167.121L100.445 167.235C99.9777 168.158 99.7942 169.214 99.9221 170.243C99.9517 170.479 99.9999 170.697 100.058 170.923L99.8788 170.989C99.8693 170.998 99.8788 171.007 99.8695 171.017C99.8509 171.073 99.8229 171.139 99.7382 171.186C99.5404 171.27 99.3142 171.325 99.0502 171.381L99.0408 171.39C98.9936 171.399 98.9559 171.399 98.9088 171.408C98.8239 171.417 98.7484 171.436 98.6541 171.454C98.6353 171.454 98.607 171.463 98.5787 171.473C98.5693 171.482 98.5505 171.482 98.5505 171.482C98.315 171.566 98.1935 171.801 98.27 172.009C98.2892 172.066 98.3177 172.113 98.3557 172.151C98.4695 172.265 98.6585 172.304 98.8187 172.257C98.8281 172.248 98.847 172.248 98.847 172.248C98.8752 172.239 98.9034 172.229 98.9224 172.229C99.0166 172.192 99.073 172.155 99.1483 172.117L99.2613 172.061C99.5155 171.94 99.7132 171.837 99.93 171.791C100.024 171.773 100.081 171.811 100.138 171.83C100.147 171.839 100.147 171.839 100.166 171.839L100.355 171.784C100.612 172.361 100.983 172.901 101.439 173.356C101.714 173.631 102.027 173.888 102.358 174.087C102.562 174.218 102.774 174.335 102.992 174.44L102.946 174.6C102.955 174.61 102.955 174.61 102.955 174.628C102.993 174.685 103.012 174.742 102.994 174.836C102.938 175.044 102.836 175.26 102.724 175.505L102.714 175.514L102.658 175.627C102.621 175.703 102.574 175.769 102.546 175.853C102.537 175.882 102.537 175.9 102.528 175.929C102.518 175.938 102.518 175.957 102.518 175.957C102.463 176.127 102.511 176.306 102.625 176.42C102.662 176.458 102.71 176.487 102.767 176.506C102.87 176.535 102.984 176.535 103.078 176.479C103.172 176.423 103.257 176.338 103.294 176.225C103.303 176.216 103.294 176.206 103.303 176.197C103.312 176.169 103.322 176.14 103.321 176.122C103.349 176.037 103.358 175.952 103.367 175.867C103.377 175.82 103.376 175.782 103.386 175.735L103.395 175.726C103.45 175.462 103.496 175.226 103.59 175.038C103.636 174.953 103.693 174.934 103.749 174.897C103.759 174.887 103.768 174.897 103.778 174.887L103.843 174.727C104.637 174.939 105.477 174.953 106.307 174.768C106.74 174.676 107.164 174.518 107.55 174.321L107.645 174.454C107.655 174.464 107.664 174.454 107.674 174.464C107.73 174.483 107.787 174.483 107.844 174.54L107.863 174.559C107.996 174.73 108.101 174.947 108.215 175.193L108.225 175.203C108.244 175.24 108.253 175.288 108.273 175.326C108.301 175.411 108.33 175.477 108.378 175.562C108.396 175.581 108.406 175.609 108.425 175.628C108.435 175.638 108.444 175.647 108.444 175.666C108.463 175.704 108.482 175.723 108.511 175.752C108.653 175.894 108.87 175.923 109.03 175.839C109.143 175.726 109.189 175.472 109.065 175.254L109.065 175.254ZM105.133 170.402L104.518 170.182L104.298 169.567L104.635 169.021L105.276 168.949L105.741 169.414L105.669 170.055L105.133 170.402L105.133 170.402ZM108.585 171.901C108.349 172.285 108.051 172.628 107.703 172.916L106.665 171.051C106.57 170.881 106.626 170.674 106.785 170.571C106.832 170.543 106.889 170.524 106.946 170.524L109.117 170.649C109.015 171.073 108.838 171.497 108.586 171.901L108.585 171.901ZM109.225 169.63L107.109 169.26C106.939 169.222 106.815 169.061 106.833 168.872C106.833 168.815 106.861 168.768 106.889 168.721L108.335 167.105C108.907 167.825 109.221 168.715 109.225 169.63ZM107.244 166.109C107.367 166.194 107.481 166.27 107.604 166.356L106.016 167.773C105.875 167.895 105.658 167.903 105.516 167.761C105.478 167.723 105.44 167.666 105.43 167.619L105.061 165.465C105.835 165.469 106.581 165.69 107.244 166.109L107.244 166.109ZM104.042 165.573L104.175 167.697C104.195 167.886 104.045 168.055 103.856 168.073C103.79 168.082 103.724 168.073 103.667 168.035L101.774 166.987C102.356 166.291 103.146 165.786 104.042 165.573ZM101.241 167.862L103.003 169.117C103.136 169.231 103.165 169.429 103.071 169.58C103.024 169.645 102.977 169.692 102.911 169.72L100.952 170.522C100.759 169.653 100.849 168.709 101.241 167.862L101.241 167.862ZM102.835 173.193C102.57 173.022 102.323 172.832 102.096 172.604C101.764 172.272 101.497 171.893 101.288 171.496L103.38 170.902C103.54 170.894 103.701 170.98 103.749 171.14C103.767 171.211 103.77 171.285 103.76 171.357L103.185 173.393C103.071 173.336 102.958 173.26 102.835 173.193L102.835 173.193ZM105.99 173.738C105.377 173.876 104.764 173.864 104.168 173.738L104.989 171.722C105.073 171.581 105.242 171.507 105.413 171.564C105.469 171.583 105.526 171.621 105.574 171.669L106.838 173.44C106.574 173.59 106.292 173.683 105.99 173.738Z" fill="#FC6767"/>
<path d="M193.204 3.06741C193.204 3.06741 193.108 2.46906 193.86 2.5508L195.701 2.65157C195.701 2.65157 196.272 2.63642 196.311 3.18558L198.472 18.9489L195.211 22.2102C195.211 22.2102 194.694 22.7179 194.095 22.0057L193.204 3.06741Z" fill="#E75959"/>
<path d="M193.412 7.47928L188.997 7.27422C188.997 7.27422 188.583 7.21384 188.504 7.76747L188.599 9.81779C188.599 9.81779 188.579 10.3467 189.267 10.4111L193.578 10.9989L193.412 7.47928Z" fill="#D76161"/>
<path d="M197.45 11.5525L204.929 12.5467L208.145 9.27537C208.145 9.27537 208.672 8.38649 207.7 8.1514L196.92 7.65658L197.45 11.5525Z" fill="#D76161"/>
<path d="M194.091 22.0099C194.084 22.5084 194.465 22.7239 194.465 22.7239L199.397 24.3948C200.109 24.5288 200.408 24.1111 200.408 24.1111L210.145 14.3738C210.573 13.9459 210.284 13.3608 210.284 13.3608L208.805 9.11671C208.567 8.10408 207.7 8.15145 207.7 8.15145C207.7 8.15145 208.607 8.29821 208.145 9.27541L195.27 22.1506C195.182 22.2391 195.076 22.3073 194.96 22.348C194.732 22.4251 194.427 22.4037 194.094 21.952L194.091 22.0099Z" fill="#FC6767"/>
<path d="M16.9605 4.26222C17.5283 4.4286 18.0073 4.90585 18.1725 5.47425C19.0218 8.31548 19.8732 11.1557 20.7216 13.9972C20.8819 14.531 20.7451 15.132 20.3596 15.5104L14.3675 21.5025C13.9723 21.9028 13.3395 22.0255 12.791 21.8419C9.96129 20.9932 7.13136 20.1466 4.302 19.2982C3.72267 19.1282 3.25069 18.6247 3.10912 18.0403C2.86306 17.1836 2.61454 16.3274 2.36812 15.4709C2.31961 15.2941 2.24366 15.116 2.26845 14.9321C2.42935 14.9118 2.5664 15.0263 2.70812 15.089C3.0082 15.2492 3.33181 15.3484 3.65215 15.4509C3.74057 15.4695 3.79245 15.5481 3.81242 15.6307C4.02569 16.3604 4.22729 17.0935 4.44461 17.8223C4.48987 17.9789 4.66595 18.0072 4.79815 18.0475C7.57733 18.878 10.355 19.7143 13.1342 20.5442C13.2318 20.5803 13.3365 20.5495 13.4011 20.4741C15.379 18.4986 17.3551 16.5207 19.3321 14.5443C19.4191 14.4726 19.444 14.3515 19.4014 14.2439C18.5545 11.4251 17.7101 8.60579 16.8638 5.7871C16.8529 5.7345 16.8265 5.6857 16.788 5.64712C16.7495 5.60854 16.7008 5.58198 16.6482 5.57092C13.8292 4.72493 11.0093 3.88175 8.19094 3.03516C8.08353 2.99282 7.9615 3.01434 7.89073 3.10294C5.91437 5.07993 3.93702 7.05665 1.96004 9.03363C1.92272 9.06459 1.89633 9.10669 1.8844 9.15425C1.87247 9.20181 1.87559 9.25256 1.89333 9.29966C2.11746 10.0536 2.34408 10.8062 2.56943 11.5595C2.70336 11.9769 2.95761 12.3996 3.36992 12.5947C3.72977 12.7709 4.1789 12.6975 4.44562 12.4206C6.41329 10.458 8.37495 8.48873 10.343 6.52705C10.4235 6.43312 10.5822 6.44768 10.6628 6.54468C10.8993 6.77813 11.1361 7.0119 11.3674 7.25049C11.4676 7.34645 11.4411 7.50788 11.3411 7.58364C9.36258 9.56028 7.38842 11.5414 5.40672 13.5149C4.88031 14.0426 4.08014 14.3894 3.31189 14.1369C2.37203 13.8193 1.66089 12.9762 1.33807 12.0567C1.05671 11.2626 0.846107 10.4469 0.592575 9.64401C0.407003 9.09549 0.532436 8.46249 0.932472 8.06762L6.92467 2.07542C7.31066 1.68173 7.9276 1.54748 8.46941 1.7213C11.2996 2.56889 14.1302 3.4154 16.9605 4.26222Z" fill="#FC6767"/>
<path d="M14.4139 10.0172C15.2652 10.7699 16.1037 11.6485 16.448 12.7477C16.7176 13.5956 16.4204 14.5124 15.8372 15.1152C15.7416 15.1796 15.61 15.1362 15.5355 15.0508C15.3032 14.8178 15.0671 14.5884 14.8389 14.3511C14.7366 14.2561 14.7662 14.1117 14.8371 14.016C15.054 13.6654 15.173 13.2224 15.0303 12.806C14.8064 12.1716 14.2984 11.6843 13.8262 11.2206C13.4672 10.8963 13.0716 10.5572 12.5903 10.4597C12.2227 10.3829 11.8618 10.6088 11.7048 10.9244C11.6098 11.1689 11.7602 11.4287 11.8775 11.647C12.6025 12.8549 13.6508 13.8551 14.2811 15.121C14.544 15.643 14.6762 16.2788 14.418 16.8058C14.0676 17.5076 13.3616 18.0595 12.5474 18.09C11.882 18.1198 11.2299 17.8461 10.6656 17.4872C9.92061 17.0039 9.27995 16.3699 8.71435 15.6881C8.19176 15.0378 7.72865 14.2803 7.6576 13.4459C7.59156 12.7377 7.90278 12.0483 8.40442 11.5842C8.49045 11.5071 8.63231 11.5353 8.7074 11.6238C8.94354 11.8563 9.17847 12.09 9.41008 12.327C9.51007 12.4142 9.5022 12.5609 9.42273 12.65C9.19565 12.9635 9.01828 13.3536 9.10478 13.7606C9.28754 14.5304 9.90521 15.1079 10.4423 15.6614C10.9132 16.094 11.4262 16.5954 12.0801 16.6788C12.4373 16.7107 12.7671 16.4961 12.9487 16.2094C13.0895 15.9548 12.9651 15.6461 12.8394 15.4C12.1736 14.1575 11.0333 13.2265 10.4144 11.9556C10.1603 11.4425 10.0342 10.8267 10.2633 10.3028C10.5904 9.56441 11.3437 8.99962 12.1848 9.02445C13.0129 9.04064 13.7786 9.49368 14.4139 10.0171L14.4139 10.0172Z" fill="#FC6767"/>
<path d="M103.656 0.344002L112.561 4.56059L116.996 13.6002L107.201 21.2134L98.4185 18.7027L95.9545 10.0506L103.656 0.344002Z" fill="#FC6767"/>
<path d="M116.995 13.6001L112.561 4.56055L98.4184 18.7027L107.195 21.2185L116.995 13.6001Z" fill="#D76161"/>
<path d="M110.92 6.22204L97.7108 11.2548L99.264 12.7559L102.142 11.5191L105.81 15.1864L104.625 18.1686L106.058 19.6543L110.92 6.22204ZM108.008 9.15467L106.493 13.4325L103.896 10.8352L108.008 9.15467Z" fill="#1A284A"/>
<path d="M6.54283 163.071C5.82075 162.349 4.65075 162.349 3.92867 163.071C3.20698 163.793 3.20691 164.963 3.92899 165.685C4.65076 166.407 5.82085 166.407 6.54254 165.685C7.26461 164.963 7.2646 163.793 6.54283 163.071ZM9.93418 178.342C8.94808 178.078 7.93484 178.662 7.67121 179.648C7.40681 180.634 7.99135 181.647 8.97745 181.911C9.96317 182.175 10.9763 181.591 11.2405 180.605C11.5044 179.619 10.9194 178.606 9.93418 178.342ZM8.07447 167.217C9.36591 165.926 11.1484 165.426 12.8208 165.717L13.4656 163.161C11.558 162.782 9.5393 163.099 7.81787 164.113C7.89392 164.863 7.64547 165.639 7.07104 166.214C6.49693 166.788 5.72042 167.036 4.97121 166.96C3.95614 168.681 3.63892 170.7 4.01841 172.608L6.57453 171.963C6.28352 170.291 6.78296 168.509 8.07447 167.217ZM15.7091 167.217C17.7033 169.211 17.8105 172.376 16.0323 174.498L17.9218 176.332C19.2699 174.801 19.9333 172.88 19.9173 170.963C19.2327 170.654 18.6874 170.052 18.4773 169.27C18.2671 168.486 18.4393 167.69 18.8792 167.08C18.5219 166.449 18.0811 165.87 17.5687 165.357C16.6968 164.483 15.6347 163.823 14.4653 163.429L13.746 165.964C14.4841 166.233 15.1541 166.661 15.7091 167.217ZM8.07443 174.851C7.51846 174.296 7.09083 173.626 6.82162 172.888L4.28642 173.608C4.68072 174.777 5.34063 175.84 6.2144 176.712C6.72709 177.224 7.30684 177.665 7.93783 178.022C8.54813 177.582 9.34319 177.41 10.1273 177.62C10.9102 177.83 11.5121 178.375 11.8212 179.06C13.7378 179.076 15.659 178.412 17.1903 177.064L15.3551 175.174C13.2332 176.953 10.0688 176.846 8.0745 174.851L8.07443 174.851ZM19.1995 169.076C19.4636 170.062 20.4763 170.647 21.462 170.382C22.4481 170.118 23.0331 169.106 22.7691 168.119C22.5046 167.134 21.4916 166.549 20.5054 166.813C19.52 167.077 18.9355 168.09 19.1995 169.076Z" fill="#FC6767"/>
<path d="M95.5354 90.3256C94.9782 89.7684 94.9295 88.8041 95.4891 88.2445C96.0487 87.6849 96.9624 87.6829 97.5702 88.2907C98.178 88.8985 98.176 89.8122 97.6164 90.3718C97.0569 90.9314 96.0925 90.8827 95.5354 90.3256ZM114.148 97.8484C114.861 96.9332 115.016 95.7654 114.866 94.5982L114.816 94.1415L114.359 94.1932C113.496 94.2458 112.53 94.9078 111.97 95.5689C111.563 96.0774 111.257 96.6872 111.154 97.2966C110.85 97.1957 110.495 97.0442 110.191 96.9433C109.582 96.6401 109.076 96.2351 108.62 95.7793L95.5013 82.6608L95.1454 82.9154C94.0775 83.7806 93.2121 84.95 92.7016 86.2709L92.5481 86.8296L92.4972 86.8805C91.678 90.1309 92.9403 93.2246 95.3208 95.6051C99.8794 100.164 105.611 101.928 111.657 99.4274C112.771 100.643 114.242 101.503 115.918 100.941L116.324 100.839L116.224 100.433C115.972 99.3673 115.111 98.4047 114.148 97.8484ZM108.428 90.5006L106.453 88.5252L104.469 90.5092L106.444 92.4846L108.428 90.5006ZM110.921 88.0079L108.945 86.0325L106.961 88.0165L108.937 89.9919L110.921 88.0079ZM113.464 85.4644L111.489 83.489L109.505 85.473L111.48 87.4483L113.464 85.4644ZM110.859 92.9318L108.884 90.9564L106.9 92.9404L108.875 94.9158L110.859 92.9318ZM103.515 85.5875L101.54 83.6121L99.5557 85.5961L101.531 87.5715L103.515 85.5875ZM105.997 88.0694L104.022 86.094L102.038 88.078L104.013 90.0533L105.997 88.0694ZM101.084 83.1563L99.1085 81.1809L97.1245 83.1649L99.0999 85.1403L101.084 83.1563ZM108.49 85.5767L106.514 83.6013L104.53 85.5853L106.506 87.5607L108.49 85.5767ZM106.008 83.0948L104.032 81.1195L102.048 83.1034L104.024 85.0788L106.008 83.0948Z" fill="#FC6767"/>
</g>
<defs>
<clipPath id="clip0_117_34">
<rect width="285" height="239" fill="white"/>
</clipPath>
</defs>
</svg>
